#Comment line ignore any data following # character
#Hierarchical Translation and Rotation (.htr) file
[Header]		#Header keywords are followed by a single value
FileType htr		#Single word string
DataType HTRS		#Translation followed by rotation and scale data
FileVersion 1		#integer
NumSegments 15		#integer
NumFrames 7		#integer
DataFrameRate 60		#integer, data frame rate in this file
EulerRotationOrder ZYX
CalibrationUnits mm
RotationUnits Degrees
GlobalAxisofGravity Y
BoneLengthAxis Y
ScaleFactor 1.000000
[SegmentNames&Hierarchy]
#CHILD	PARENT
1cou	1buste
1buste	1bassin
1brasG	1buste
1brasD	1buste
1avbrasG	1brasG
1avbrasD	1brasD
1mainG	1avbrasG
1mainD	1avbrasD
1bassin	GLOBAL
1cuisseG	1bassin
1cuisseD	1bassin
1moletG	1cuisseG
1moletD	1cuisseD
1piedG	1moletG
1piedD	1moletD
[BasePosition]
#SegmentName Tx, Ty, Tz, Rx, Ry, Rz, BoneLength
1cou	0.000002	394.639771	0.000003	47.447697	-6.500580	2.097482	232.574402
1buste	0.331046	98.159424	9.920088	5.813737	-6.959647	-0.900074	394.639771
1brasG	222.293304	333.760773	-3.143221	-5.521868	-4.449825	-174.025208	338.016541
1brasD	-186.675308	347.235016	-30.968008	-5.508482	16.777920	169.824814	318.101379
1avbrasG	0.000004	338.016571	-0.000002	34.403133	17.432653	23.106703	253.821075
1avbrasD	-0.000007	318.101410	-0.000013	32.381824	-10.529597	-11.344105	276.946075
1mainG	0.000006	253.821091	-0.000001	-3.773718	-0.485368	-1.748444	73.639816
1mainD	-0.000031	276.946106	-0.000010	-3.909555	0.199285	0.225476	80.942635
1bassin	396.031860	1037.839600	833.112305	178.297836	19.764000	-179.799622	97.859962
1cuisseG	108.625954	-0.934603	-40.474510	172.403458	-4.353497	-0.165467	517.714233
1cuisseD	-106.972656	-1.326527	-48.733826	172.076172	-12.757409	2.045154	501.698334
1moletG	0.000006	517.714233	-0.000009	157.872192	5.331374	176.676331	488.075745
1moletD	-0.000005	501.698303	0.000003	156.316269	3.295414	-177.725830	511.880615
1piedG	0.000002	488.075745	-0.000006	99.880898	-0.000004	0.000000	242.425140
1piedD	-0.000009	511.880646	-0.000013	102.622849	0.000000	0.000000	237.138092
#Beginning of Data. Separated by tabs
[1cou]
#Fr	Tx	Ty	Tz	Rx	Ry	Rz	SF
87	-0.000001	-42.428314	0.000020	10.144696	-12.089069	23.949793	1.017839
88	-0.000005	-43.556061	0.000002	8.120069	-13.764328	23.704937	1.017214
89	-0.000006	-44.214752	0.000009	5.954230	-15.145434	22.605551	1.017149
90	0.000006	-44.528870	0.000012	3.265635	-17.411837	22.124416	1.011314
91	-0.000008	-45.255310	0.000001	0.267052	-20.413023	22.000971	0.996564
92	-0.000007	-45.364746	0.000017	-2.464964	-22.532572	21.296614	0.993655
93	0.000012	-45.484375	-0.000002	-5.029202	-26.365795	21.338064	0.986809
[1buste]
#Fr	Tx	Ty	Tz	Rx	Ry	Rz	SF
87	6.319269	-10.487595	-5.152872	-3.184687	-9.960973	-3.238268	0.892488
88	5.802999	-10.811722	-3.880061	-2.290274	-8.847078	-3.215557	0.889631
89	5.291130	-11.021904	-2.827487	-1.547873	-8.074826	-3.108464	0.887962
90	4.692290	-11.138977	-1.963099	-0.927154	-7.369436	-2.889386	0.887166
91	4.294067	-11.428673	-0.661289	-0.027471	-7.125027	-2.857767	0.885325
92	3.564877	-11.546890	0.455916	0.768223	-6.799104	-2.567977	0.885048
93	2.779080	-11.682022	1.539773	1.547423	-6.460994	-2.227876	0.884745
[1brasG]
#Fr	Tx	Ty	Tz	Rx	Ry	Rz	SF
87	-59.017822	-10.431091	47.465332	79.853928	24.771240	65.161079	0.886339
88	-57.771683	-11.026672	46.797066	78.974068	25.471268	65.246857	0.888842
89	-57.083206	-11.692780	46.144043	78.102951	25.997267	65.381729	0.892341
90	-56.726395	-12.342041	45.615280	77.445976	26.226732	65.757179	0.896975
91	-56.159073	-13.520172	45.267509	76.748810	26.580349	65.753052	0.899322
92	-55.302933	-14.695282	45.065910	76.133057	26.935482	65.471916	0.899236
93	-54.016266	-15.761505	44.668198	75.641006	27.198341	65.152542	0.899056
[1brasD]
#Fr	Tx	Ty	Tz	Rx	Ry	Rz	SF
87	5.712814	-86.486572	-32.474464	4.303997	-28.894464	6.775579	0.827121
88	6.549332	-88.921204	-33.229515	3.436764	-29.306419	8.095941	0.836497
89	6.712021	-90.585266	-34.604515	3.306480	-30.058901	8.895009	0.855438
90	6.633865	-91.887131	-36.566010	3.351631	-30.702330	9.845656	0.870369
91	6.809814	-93.379242	-36.758949	2.795175	-31.028982	11.148402	0.877202
92	7.216858	-93.628571	-36.332687	2.136733	-31.225471	12.241098	0.882194
93	8.128220	-93.528534	-34.907448	1.298194	-31.386101	13.040785	0.886877
[1avbrasG]
#Fr	Tx	Ty	Tz	Rx	Ry	Rz	SF
87	0.000004	-38.419434	0.000013	37.076355	-9.071948	26.119974	1.138595
88	0.000019	-37.573151	-0.000004	37.295124	-8.562442	27.413233	1.137054
89	-0.000019	-36.390472	0.000017	37.649521	-8.401233	28.367918	1.135134
90	0.000008	-34.824066	-0.000001	38.124977	-8.635068	28.874546	1.133061
91	0.000013	-34.030792	-0.000005	38.497364	-8.835369	29.256598	1.133574
92	-0.000028	-34.059906	-0.000005	38.697426	-8.993687	29.402603	1.135331
93	-0.000022	-34.120605	0.000006	38.784828	-9.121465	29.344700	1.137265
[1avbrasD]
#Fr	Tx	Ty	Tz	Rx	Ry	Rz	SF
87	0.000016	-54.993164	0.000014	67.192245	-5.202246	-92.100212	0.828746
88	0.000005	-52.010651	0.000005	67.929230	-5.813199	-91.825821	0.832560
89	0.000018	-45.985443	0.000012	68.672020	-6.387697	-91.803246	0.834118
90	0.000012	-41.235779	-0.000007	69.386375	-7.446146	-92.110184	0.833449
91	-0.000004	-39.062378	0.000021	70.130547	-8.594490	-92.930756	0.833244
92	0.000003	-37.474182	0.000003	71.005424	-9.718504	-94.069542	0.833677
93	0.000011	-35.984497	0.000014	71.990959	-10.477292	-95.872513	0.836675
[1mainG]
#Fr	Tx	Ty	Tz	Rx	Ry	Rz	SF
87	-0.000018	35.178299	-0.000007	2.338539	0.364506	1.850963	1.101143
88	-0.000006	34.787186	0.000003	2.361964	0.363412	1.868207	1.099368
89	0.000003	34.299942	-0.000003	2.392446	0.361772	1.894570	1.097158
90	0.000005	33.773636	0.000011	2.428843	0.360000	1.928080	1.094763
91	-0.000014	33.904007	-0.000029	2.459625	0.358102	1.953951	1.095111
92	0.000005	34.349899	-0.000016	2.475643	0.356226	1.966429	1.096847
93	-0.000004	34.840622	0.000000	2.480853	0.354908	1.968333	1.098828
[1mainD]
#Fr	Tx	Ty	Tz	Rx	Ry	Rz	SF
87	0.000058	-47.428162	-0.000003	2.103624	-0.380903	-1.637778	0.784067
88	0.000058	-46.371933	0.000013	2.175874	-0.406526	-1.587908	0.787445
89	0.000030	-45.940338	0.000009	2.236687	-0.437178	-1.561775	0.788640
90	0.000048	-46.125549	0.000011	2.273683	-0.436476	-1.492886	0.787485
91	0.000051	-46.182343	0.000003	2.297519	-0.411767	-1.397201	0.786809
92	0.000035	-46.062668	0.000009	2.324993	-0.383373	-1.298414	0.786803
93	0.000058	-45.232224	-0.000003	2.351508	-0.363965	-1.227476	0.789580
[1bassin]
#Fr	Tx	Ty	Tz	Rx	Ry	Rz	SF
87	-826.634583	-818.336365	-150.172119	-104.805916	-11.882524	104.700714	0.902732
88	-839.940552	-819.552002	-141.131592	-105.125198	-11.343204	104.837440	0.900120
89	-852.443298	-821.689087	-132.762939	-105.250038	-11.007646	104.685555	0.898288
90	-864.680359	-824.342346	-125.289673	-105.177475	-10.804263	104.361137	0.896168
91	-876.595825	-826.682556	-118.076843	-105.337631	-10.436152	103.439735	0.896229
92	-887.615967	-828.904480	-111.698792	-105.470039	-10.122298	102.530319	0.897660
93	-897.633057	-830.996216	-105.622070	-105.722008	-9.720138	101.638542	0.899326
[1cuisseG]
#Fr	Tx	Ty	Tz	Rx	Ry	Rz	SF
87	-10.135056	2.142705	-7.201012	-4.250912	-10.151817	-20.001534	0.988549
88	-10.478935	1.816906	-7.624119	-4.919886	-11.110300	-20.736217	0.989717
89	-10.676895	1.528406	-7.664856	-5.808619	-12.152459	-21.626814	0.987880
90	-10.981056	1.237069	-7.808239	-7.065985	-13.182815	-22.440145	0.986813
91	-10.952637	0.951319	-7.682125	-8.361251	-13.474094	-22.637589	0.986993
92	-10.748825	0.601717	-7.588669	-9.655109	-13.718897	-22.663052	0.988296
93	-10.432037	0.247488	-7.373631	-10.707770	-13.615872	-22.418755	0.990468
[1cuisseD]
#Fr	Tx	Ty	Tz	Rx	Ry	Rz	SF
87	6.038605	-1.046257	13.325638	-38.348827	-16.625891	-17.828465	1.100800
88	6.136391	-1.017076	14.140625	-38.243877	-16.911930	-17.950468	1.100411
89	6.284950	-0.971829	14.350304	-38.328102	-17.145660	-18.147375	1.100420
90	6.464020	-0.877442	14.831680	-38.623070	-17.417826	-18.258844	1.100311
91	6.434685	-0.883947	14.965252	-38.809612	-17.041290	-18.049646	1.099574
92	6.265366	-0.782371	14.880714	-39.094288	-16.658031	-17.805098	1.098805
93	6.087753	-0.674027	14.390667	-39.364990	-16.321096	-17.405287	1.097266
[1moletG]
#Fr	Tx	Ty	Tz	Rx	Ry	Rz	SF
87	-0.000006	-5.928406	0.000025	-36.661068	-18.659941	8.262691	0.946632
88	-0.000016	-5.323486	0.000029	-36.381550	-19.710073	8.237873	0.947056
89	-0.000007	-6.274841	-0.000009	-36.044456	-19.535801	7.337458	0.946253
90	-0.000014	-6.826904	-0.000018	-35.891712	-18.342407	6.154232	0.944720
91	-0.000003	-6.733734	0.000043	-35.728279	-16.819212	4.968372	0.948904
92	-0.000011	-6.059235	-0.000004	-35.268723	-15.233490	4.139545	0.949267
93	0.000015	-4.934753	-0.000005	-34.817299	-14.223689	3.827940	0.950179
[1moletD]
#Fr	Tx	Ty	Tz	Rx	Ry	Rz	SF
87	-0.000012	50.571045	0.000021	-89.198975	-0.783820	4.263752	0.855440
88	0.000003	50.376343	0.000025	-90.551170	-1.127467	5.487136	0.856677
89	0.000005	50.380554	-0.000010	-91.525131	-1.114362	5.025601	0.858491
90	0.000021	50.325928	-0.000011	-92.183617	-0.534757	4.026954	0.860377
91	0.000015	49.956177	0.000017	-92.623230	0.164495	3.135628	0.861702
92	0.000014	49.570251	-0.000015	-92.644333	0.884439	3.280025	0.862009
93	0.000011	48.798157	-0.000029	-92.381256	1.578394	4.091848	0.861909
[1piedG]
#Fr	Tx	Ty	Tz	Rx	Ry	Rz	SF
87	0.000015	-26.047455	0.000041	8.877304	-0.000001	-0.000006	1.040820
88	0.000026	-25.840851	0.000027	9.261014	-0.000001	-0.000002	1.033218
89	0.000010	-26.232697	-0.000005	9.218580	-0.000001	-0.000006	1.031449
90	0.000000	-26.980835	0.000008	9.644876	-0.000001	-0.000004	1.036511
91	0.000017	-24.938721	0.000024	10.072613	-0.000000	-0.000000	1.036508
92	-0.000038	-24.761688	0.000026	10.037670	-0.000001	-0.000004	1.027840
93	0.000004	-24.316650	0.000021	10.195903	-0.000000	-0.000001	1.026397
[1piedD]
#Fr	Tx	Ty	Tz	Rx	Ry	Rz	SF
87	0.000008	-73.997375	0.000026	8.607944	-0.000000	-0.000001	0.984398
88	0.000014	-73.364075	0.000030	8.750516	-0.000001	-0.000002	0.997758
89	0.000008	-72.435669	0.000024	8.019170	0.000000	0.000000	0.999092
90	-0.000004	-71.470276	0.000000	7.398733	-0.000000	-0.000001	1.004409
91	0.000030	-70.792358	0.000020	7.423243	0.000000	0.000001	1.017177
92	-0.000000	-70.634979	0.000025	7.223623	0.000000	-0.000001	1.020650
93	0.000013	-70.686035	0.000019	7.159189	0.000000	0.000002	1.021374
[EndOfFile]
